<svg xmlns="http://www.w3.org/2000/svg" viewBox="0 0 64 64" aria-hidden="true">
  <symbol id="shield" viewBox="0 0 64 64">
    <path fill="#1f7a3d" d="M32 6l20 8v16c0 11.6-7.7 22.5-20 28-12.3-5.5-20-16.4-20-28V14l20-8z" opacity="0.15" />
    <path fill="none" stroke="#1f7a3d" stroke-width="3" stroke-linejoin="round" d="M32 6l20 8v16c0 11.6-7.7 22.5-20 28-12.3-5.5-20-16.4-20-28V14l20-8z" />
    <path fill="#1f7a3d" d="M26 31l5 5 11-11 3 3-14 14-8-8z" />
  </symbol>
  <symbol id="wallet" viewBox="0 0 64 64">
    <rect x="6" y="18" width="52" height="30" rx="10" fill="#ecf9f0" stroke="#1f7a3d" stroke-width="3" />
    <rect x="14" y="18" width="36" height="12" rx="6" fill="#1f7a3d" opacity="0.15" />
    <circle cx="46" cy="33" r="4" fill="#1f7a3d" />
  </symbol>
  <symbol id="leaf" viewBox="0 0 64 64">
    <path fill="#1f7a3d" d="M12 34c0-16 12-26 27-26 5 0 9 1 13 3-2 20-13 35-33 41-4-4-7-10-7-18z" opacity="0.15" />
    <path fill="none" stroke="#1f7a3d" stroke-width="3" stroke-linecap="round" d="M12 34c0-16 12-26 27-26 5 0 9 1 13 3-2 20-13 35-33 41-4-4-7-10-7-18z" />
    <path fill="none" stroke="#1f7a3d" stroke-width="3" stroke-linecap="round" d="M52 11C35 23 26 36 23 52" />
  </symbol>
  <symbol id="hands" viewBox="0 0 64 64">
    <path fill="#ecf9f0" stroke="#1f7a3d" stroke-width="3" stroke-linecap="round" stroke-linejoin="round" d="M12 38l12-12 8 8 8-8 12 12c-4 10-12 14-20 14s-16-4-20-14z" />
    <path fill="#1f7a3d" opacity="0.15" d="M24 28l8 8 8-8 6 6-14 14-14-14z" />
  </symbol>
</svg>
