<svg xmlns="http://www.w3.org/2000/svg" viewBox="0 0 64 64" role="img" aria-label="FaremSpolu">
  <defs>
    <linearGradient id="leaf" x1="0%" y1="0%" x2="100%" y2="100%">
      <stop offset="0%" stop-color="#1f7a3d" />
      <stop offset="100%" stop-color="#3cc76e" />
    </linearGradient>
  </defs>
  <rect width="64" height="64" rx="16" fill="#ecf9f0" />
  <path
    d="M18 44c0-12 10-22 22-22 2.6 0 5.2.5 7.6 1.5C43 13 33 8 24 8 13.5 8 8 16 8 28c0 12 8 20 18 20h10c8 0 12-4 12-10 0-6-4-10-12-10-8 0-14 6-14 16"
    fill="url(#leaf)"
  />
  <circle cx="44" cy="22" r="6" fill="#1f7a3d" />
</svg>
